HIERARCHY
ROOT bip01_pelvis
{
	OFFSET -0.141780 111.560104 -53.453648
	CHANNELS 6 Xposition Yposition Zposition Xrotation Yrotation Zrotation
	JOINT bip01_l_thigh
	{
		OFFSET -12.581326 0.000023 0.838757
		CHANNELS 3 Xrotation Yrotation Zrotation
		JOINT bip01_l_calf
		{
			OFFSET -5.405050 -43.060066 12.568863
			CHANNELS 3 Xrotation Yrotation Zrotation
			JOINT bip01_l_foot
			{
				OFFSET -6.378141 -25.639313 -28.000755
				CHANNELS 3 Xrotation Yrotation Zrotation
				JOINT bip01_l_toe0
				{
					OFFSET -1.312191 -43.345943 -5.410645
					CHANNELS 3 Xrotation Yrotation Zrotation
					End Site
					{
						OFFSET 0.668312 -0.011212 0.027710
					}
				}
			}
		}
	}
	JOINT bip01_r_thigh
	{
		OFFSET 12.581315 -0.000053 -0.838764
		CHANNELS 3 Xrotation Yrotation Zrotation
		JOINT bip01_r_calf
		{
			OFFSET 7.025425 -43.060097 11.740181
			CHANNELS 3 Xrotation Yrotation Zrotation
			JOINT bip01_r_foot
			{
				OFFSET 2.604660 -25.639347 -28.599602
				CHANNELS 3 Xrotation Yrotation Zrotation
				JOINT bip01_r_toe0
				{
					OFFSET 0.582125 -43.345810 -5.536972
					CHANNELS 3 Xrotation Yrotation Zrotation
					End Site
					{
						OFFSET 0.658720 0.011207 -0.116180
					}
				}
			}
		}
	}
	JOINT bip01_spine
	{
		OFFSET 1.130847 -10.257637 16.963192
		CHANNELS 3 Xrotation Yrotation Zrotation
		JOINT bip01_spine1
		{
			OFFSET 2.125925 -0.408882 31.891911
			CHANNELS 3 Xrotation Yrotation Zrotation
			JOINT bip01_spine2
			{
				OFFSET 3.104555 -1.436646 46.949230
				CHANNELS 3 Xrotation Yrotation Zrotation
				JOINT bip01_neck
				{
					OFFSET 1.831697 12.621635 29.209831
					CHANNELS 3 Xrotation Yrotation Zrotation
					JOINT bip01_head
					{
						OFFSET 0.933028 14.642593 15.308128
						CHANNELS 3 Xrotation Yrotation Zrotation
						JOINT bip01_ponytail1
						{
							OFFSET 12.881245 30.917107 3.869919
							CHANNELS 3 Xrotation Yrotation Zrotation
							End Site
							{
								OFFSET -0.556711 0.315430 0.195229
							}
						}
						JOINT bip01_ponytail2
						{
							OFFSET -12.308470 31.163292 5.588448
							CHANNELS 3 Xrotation Yrotation Zrotation
							End Site
							{
								OFFSET -0.577699 -0.315430 -0.119598
							}
						}
						JOINT bone01
						{
							OFFSET -0.035753 10.693596 0.910164
							CHANNELS 3 Xrotation Yrotation Zrotation
							End Site
							{
								OFFSET -0.667642 0.000000 0.042305
							}
						}
						JOINT bone03
						{
							OFFSET -2.859410 10.011330 9.974838
							CHANNELS 3 Xrotation Yrotation Zrotation
							End Site
							{
								OFFSET 0.042301 0.000000 0.667641
							}
						}
						JOINT bone05
						{
							OFFSET 4.144515 10.011345 9.531006
							CHANNELS 3 Xrotation Yrotation Zrotation
							End Site
							{
								OFFSET 0.042301 0.000000 0.667641
							}
						}
					}
					JOINT bip01_l_clavicle
					{
						OFFSET -6.817371 -1.737137 -4.124603
						CHANNELS 3 Xrotation Yrotation Zrotation
						JOINT bip01_l_upperarm
						{
							OFFSET -13.915021 0.119522 7.203735
							CHANNELS 3 Xrotation Yrotation Zrotation
							JOINT bip01_l_forearm
							{
								OFFSET 0.900768 -49.360191 -24.691143
								CHANNELS 3 Xrotation Yrotation Zrotation
								JOINT bip01_l_hand
								{
									OFFSET 5.453267 -54.192162 0.261513
									CHANNELS 3 Xrotation Yrotation Zrotation
									End Site
									{
										OFFSET -0.048247 0.019447 -0.666954
									}
								}
							}
						}
					}
					JOINT bip01_r_clavicle
					{
						OFFSET 6.291911 -1.668388 -4.989365
						CHANNELS 3 Xrotation Yrotation Zrotation
						JOINT bip01_r_upperarm
						{
							OFFSET 14.738678 0.269737 5.313599
							CHANNELS 3 Xrotation Yrotation Zrotation
							JOINT bip01_r_forearm
							{
								OFFSET -4.170362 -49.360199 -24.353104
								CHANNELS 3 Xrotation Yrotation Zrotation
								JOINT bip01_r_hand
								{
									OFFSET -5.370342 -54.192158 0.983074
									CHANNELS 3 Xrotation Yrotation Zrotation
									End Site
									{
										OFFSET 0.040714 -0.019448 0.667458
									}
								}
							}
						}
					}
				}
			}
		}
	}
	JOINT bip01_tail
	{
		OFFSET -1.140240 5.694984 -17.420544
		CHANNELS 3 Xrotation Yrotation Zrotation
		JOINT bip01_tail1
		{
			OFFSET -0.799711 -16.655739 -11.995483
			CHANNELS 3 Xrotation Yrotation Zrotation
			JOINT bip01_tail2
			{
				OFFSET -0.560408 -49.655807 -8.404999
				CHANNELS 3 Xrotation Yrotation Zrotation
				End Site
				{
					OFFSET -0.667499 0.000004 0.044495
				}
			}
		}
	}
}
MOTION
Frames: 6
Frame Time: 0.041667
-0.381688 114.694283 -55.339138 2.631717 3.035717 -0.031158 2.170451 -17.369154 6.620222 -6.666300 0.972362 0.650429 -10.104099 3.205400 -1.865197 12.227483 0.850543 -1.932795 5.072023 11.521757 -3.617520 -9.836313 -1.516703 0.306697 -1.566674 -12.658659 1.810671 8.650208 2.614219 -4.476483 6.120845 -4.196279 0.335193 -12.447477 -1.927708 -2.117645 1.733751 -5.182210 0.156628 -24.884140 2.058097 0.334571 25.433331 1.722856 3.819789 -13.023783 6.285845 -25.208845 -4.964443 1.759101 16.347657 4.322576 -0.129284 -0.442848 0.175517 -0.578117 -0.068225 0.313545 0.523651 -0.092166 33.608707 -45.326484 11.920191 5.494577 49.930595 -13.002717 -6.266399 -0.680550 0.986986 6.582054 -1.800112 -0.564205 32.008264 27.919054 -13.831668 6.590547 -23.530260 19.795051 -15.706414 1.590679 -0.231948 8.374206 -0.793379 0.495653 2.253153 -4.692625 7.354418 0.595947 0.537676 -1.807706 -16.888184 -0.027967 -0.731543 
-0.381688 111.554909 -53.134789 2.257886 2.429480 -0.034157 0.559609 -16.471623 5.983859 -0.225182 0.033996 0.020136 -13.293992 3.462607 -1.331852 10.793081 0.900970 -1.848369 3.835842 11.479283 -2.834512 -3.799613 -0.579432 0.149098 -4.481918 -12.689093 1.810113 7.034476 2.609125 -4.275502 4.321068 -3.119146 0.478508 -9.620385 -1.995957 -2.344754 3.522984 -4.853041 0.521312 -21.887790 2.084271 0.027631 18.821409 1.304598 3.110126 -7.971600 11.574246 -24.733934 -0.941957 -8.342790 15.533126 3.999904 -0.127280 -0.422253 0.154584 -0.499407 -0.054807 0.294857 0.481311 -0.069108 30.786996 -45.234519 12.167422 9.584386 48.873057 -17.548537 -13.359077 -1.577434 2.008689 8.453378 -1.633395 -0.797568 28.689107 28.057094 -13.163649 8.920523 -24.956787 19.413530 -21.175649 2.151278 -0.209563 9.837228 -0.048672 1.391336 9.240936 -3.263621 7.314540 -1.139276 0.675329 -1.650632 -19.071382 -0.001876 -0.588208 
-0.381688 108.611755 -51.591743 1.855280 1.766562 -0.052986 -0.697186 -15.512524 5.442826 5.899300 -0.919937 -0.478690 -16.470672 3.705467 -0.743808 9.356766 0.948333 -1.766306 2.967339 11.478012 -2.101090 1.900428 0.285438 -0.089316 -7.405124 -12.716548 1.718412 5.382792 2.598224 -4.070497 2.266027 -1.912236 0.704928 -6.396158 -2.113025 -2.608950 5.503165 -4.483561 0.911801 -18.797524 2.094056 -0.287646 11.750015 0.845964 2.274291 -2.549920 17.182119 -24.752855 3.469837 -19.367126 15.457174 3.117616 -0.121381 -0.362573 0.107348 -0.347423 -0.034194 0.219920 0.356336 -0.042339 27.885632 -45.149804 12.434498 12.594520 47.620636 -21.208315 -19.675777 -2.478604 2.820968 9.821913 -1.525752 -0.891339 25.271094 28.187981 -12.474237 10.918351 -26.708688 18.972667 -26.389570 2.681186 -0.138539 11.090490 0.706326 2.425924 16.699602 -1.750883 7.009045 -3.526874 0.837410 -1.439431 -21.380919 0.018758 -0.431659 
-0.399297 106.060997 -49.607830 1.433934 1.055490 -0.065367 -1.593450 -14.512139 4.980862 11.691461 -1.867146 -0.854726 -19.635366 3.933803 -0.102776 7.921782 0.992838 -1.683239 2.475806 11.521699 -1.415956 7.250937 1.071390 -0.390044 -10.320838 -12.737664 1.531237 3.691249 2.587401 -3.853894 0.084628 -0.632390 1.014194 -2.975467 -2.267654 -2.885363 7.577242 -4.084081 1.319068 -15.652712 2.084447 -0.610573 4.444093 0.373560 1.361920 3.290075 22.975718 -25.375013 8.518947 -30.865608 16.423060 1.822967 -0.118255 -0.275373 0.048976 -0.154177 -0.015475 0.107327 0.170408 -0.014904 24.937227 -45.071158 12.706132 14.841829 46.241211 -24.180804 -25.345580 -3.360295 3.462843 10.788940 -1.465747 -0.870067 21.796874 28.312898 -11.770993 12.678261 -28.691989 18.579832 -31.301739 3.172313 -0.027805 12.137302 1.448144 3.572350 23.919876 -0.307806 6.436699 -5.591183 0.980742 -1.246615 -23.790112 0.034067 -0.271628 
-0.416906 102.725395 -48.064774 0.999176 0.311957 -0.074103 -2.135206 -13.480254 4.579008 17.146428 -2.790027 -1.119983 -22.774810 4.145578 0.585730 6.488044 1.034789 -1.595787 2.353220 11.604863 -0.797524 12.222608 1.772895 -0.733781 -13.214010 -12.752239 1.260005 1.962405 2.569204 -3.633126 -2.098291 0.654798 1.400548 0.443779 -2.433830 -3.147366 9.647641 -3.667502 1.714730 -12.497279 2.060288 -0.931413 -2.869467 -0.090625 0.415735 9.641946 28.805093 -26.742926 14.710978 -42.353026 18.932606 0.243679 -0.116612 -0.169992 -0.012618 0.051446 0.004384 -0.040366 -0.056845 0.008583 21.982742 -45.003587 12.986590 16.597669 44.802943 -26.634891 -30.418005 -4.199979 3.961471 11.422717 -1.446681 -0.757472 18.298309 28.430710 -11.054633 14.304654 -30.797289 18.322541 -35.868069 3.618530 0.112526 12.976215 2.165576 4.807265 30.198940 0.940641 5.682125 -6.348883 1.066226 -1.162396 -26.250575 0.040099 -0.105751 
-0.434514 100.174652 -46.301292 0.556870 -0.444132 -0.092744 -2.324444 -12.436910 4.223866 22.229322 -3.668940 -1.287191 -25.882384 4.331172 1.324466 5.052373 1.073231 -1.510932 2.593568 11.714517 -0.240565 16.799369 2.389394 -1.102582 -16.051406 -12.758113 0.906114 0.203601 2.550021 -3.402385 -4.161406 1.904155 1.831702 3.666176 -2.597904 -3.386064 11.617870 -3.257869 2.067485 -9.366939 2.015598 -1.251460 -9.969868 -0.535258 -0.525667 16.636727 34.508547 -28.994061 23.037579 -53.259100 23.955779 -1.468366 -0.118003 -0.056078 -0.076141 0.248630 0.018401 -0.204419 -0.300332 0.017898 19.010841 -44.871498 13.215367 22.347807 42.029620 -32.188267 -55.907926 -8.885815 5.257341 62.707236 -1.985653 -4.963506 14.826490 28.530711 -10.333617 15.933839 -32.904047 18.272769 -40.045816 4.015548 0.271687 13.594263 2.849427 6.084846 34.812310 1.932810 4.896122 -4.823786 1.059533 -1.279504 -28.738940 0.041534 0.063193 
